<svg width="61" height="18" viewBox="0 0 61 18" fill="none" xmlns="http://www.w3.org/2000/svg">
<path d="M7.77832 10.6426C7.77832 10.1445 7.60254 9.76367 7.25098 9.5C6.89941 9.23047 6.2666 8.94922 5.35254 8.65625C4.43848 8.35742 3.71484 8.06445 3.18164 7.77734C1.72852 6.99219 1.00195 5.93457 1.00195 4.60449C1.00195 3.91309 1.19531 3.29785 1.58203 2.75879C1.97461 2.21387 2.53418 1.78906 3.26074 1.48438C3.99316 1.17969 4.81348 1.02734 5.72168 1.02734C6.63574 1.02734 7.4502 1.19434 8.16504 1.52832C8.87988 1.85645 9.43359 2.32227 9.82617 2.92578C10.2246 3.5293 10.4238 4.21484 10.4238 4.98242H7.78711C7.78711 4.39648 7.60254 3.94238 7.2334 3.62012C6.86426 3.29199 6.3457 3.12793 5.67773 3.12793C5.0332 3.12793 4.53223 3.26563 4.1748 3.54102C3.81738 3.81055 3.63867 4.16797 3.63867 4.61328C3.63867 5.0293 3.84668 5.37793 4.2627 5.65918C4.68457 5.94043 5.30273 6.2041 6.11719 6.4502C7.61719 6.90137 8.70996 7.46094 9.39551 8.12891C10.0811 8.79688 10.4238 9.62891 10.4238 10.625C10.4238 11.7324 10.0049 12.6025 9.16699 13.2354C8.3291 13.8623 7.20117 14.1758 5.7832 14.1758C4.79883 14.1758 3.90234 13.9971 3.09375 13.6396C2.28516 13.2764 1.66699 12.7812 1.23926 12.1543C0.817383 11.5273 0.606445 10.8008 0.606445 9.97461H3.25195C3.25195 11.3867 4.0957 12.0928 5.7832 12.0928C6.41016 12.0928 6.89941 11.9668 7.25098 11.7148C7.60254 11.457 7.77832 11.0996 7.77832 10.6426ZM17.5605 14C17.4434 13.7715 17.3584 13.4873 17.3057 13.1475C16.6904 13.833 15.8906 14.1758 14.9062 14.1758C13.9746 14.1758 13.2012 13.9062 12.5859 13.3672C11.9766 12.8281 11.6719 12.1484 11.6719 11.3281C11.6719 10.3203 12.0439 9.54688 12.7881 9.00781C13.5381 8.46875 14.6191 8.19629 16.0312 8.19043H17.2002V7.64551C17.2002 7.20605 17.0859 6.85449 16.8574 6.59082C16.6348 6.32715 16.2803 6.19531 15.7939 6.19531C15.3662 6.19531 15.0293 6.29785 14.7832 6.50293C14.543 6.70801 14.4229 6.98926 14.4229 7.34668H11.8828C11.8828 6.7959 12.0527 6.28613 12.3926 5.81738C12.7324 5.34863 13.2129 4.98242 13.834 4.71875C14.4551 4.44922 15.1523 4.31445 15.9258 4.31445C17.0977 4.31445 18.0264 4.61035 18.7119 5.20215C19.4033 5.78809 19.749 6.61426 19.749 7.68066V11.8027C19.7549 12.7051 19.8809 13.3877 20.127 13.8506V14H17.5605ZM15.46 12.2334C15.835 12.2334 16.1807 12.1514 16.4971 11.9873C16.8135 11.8174 17.0479 11.5918 17.2002 11.3105V9.67578H16.251C14.9795 9.67578 14.3027 10.1152 14.2207 10.9941L14.2119 11.1436C14.2119 11.46 14.3232 11.7207 14.5459 11.9258C14.7686 12.1309 15.0732 12.2334 15.46 12.2334ZM24.082 4.49023L24.1611 5.55371C24.835 4.72754 25.7461 4.31445 26.8945 4.31445C28.1191 4.31445 28.96 4.79785 29.417 5.76465C30.085 4.79785 31.0371 4.31445 32.2734 4.31445C33.3047 4.31445 34.0723 4.61621 34.5762 5.21973C35.0801 5.81738 35.332 6.71973 35.332 7.92676V14H32.7832V7.93555C32.7832 7.39648 32.6777 7.00391 32.4668 6.75781C32.2559 6.50586 31.8838 6.37988 31.3506 6.37988C30.5889 6.37988 30.0615 6.74316 29.7686 7.46973L29.7773 14H27.2373V7.94434C27.2373 7.39355 27.1289 6.99512 26.9121 6.74902C26.6953 6.50293 26.3262 6.37988 25.8047 6.37988C25.084 6.37988 24.5625 6.67871 24.2402 7.27637V14H21.7002V4.49023H24.082ZM45.8525 9.33301C45.8525 10.7979 45.5186 11.9727 44.8506 12.8574C44.1885 13.7363 43.292 14.1758 42.1611 14.1758C41.2002 14.1758 40.4238 13.8418 39.832 13.1738V17.6562H37.292V4.49023H39.6475L39.7354 5.42188C40.3506 4.68359 41.1533 4.31445 42.1436 4.31445C43.3154 4.31445 44.2266 4.74805 44.877 5.61523C45.5273 6.48242 45.8525 7.67773 45.8525 9.20117V9.33301ZM43.3125 9.14844C43.3125 8.26367 43.1543 7.58105 42.8379 7.10059C42.5273 6.62012 42.0732 6.37988 41.4756 6.37988C40.6787 6.37988 40.1309 6.68457 39.832 7.29395V11.1875C40.1426 11.8145 40.6963 12.1279 41.4932 12.1279C42.7061 12.1279 43.3125 11.1348 43.3125 9.14844ZM50.1152 14H47.5664V0.5H50.1152V14ZM56.5928 14.1758C55.1982 14.1758 54.0615 13.748 53.1826 12.8926C52.3096 12.0371 51.873 10.8975 51.873 9.47363V9.22754C51.873 8.27246 52.0576 7.41992 52.4268 6.66992C52.7959 5.91406 53.3174 5.33398 53.9912 4.92969C54.6709 4.51953 55.4443 4.31445 56.3115 4.31445C57.6123 4.31445 58.6348 4.72461 59.3789 5.54492C60.1289 6.36523 60.5039 7.52832 60.5039 9.03418V10.0713H54.4482C54.5303 10.6924 54.7764 11.1904 55.1865 11.5654C55.6025 11.9404 56.127 12.1279 56.7598 12.1279C57.7383 12.1279 58.5029 11.7734 59.0537 11.0645L60.3018 12.4619C59.9209 13.001 59.4053 13.4229 58.7549 13.7275C58.1045 14.0264 57.3838 14.1758 56.5928 14.1758ZM56.3027 6.37109C55.7988 6.37109 55.3887 6.54102 55.0723 6.88086C54.7617 7.2207 54.5625 7.70703 54.4746 8.33984H58.0078V8.1377C57.9961 7.5752 57.8438 7.1416 57.5508 6.83691C57.2578 6.52637 56.8418 6.37109 56.3027 6.37109Z" fill="red"/>
</svg>
